<?xml version="1.0" encoding="UTF-8" standalone="no"?>
<!-- Created with Inkscape (http://www.inkscape.org/) -->

<svg
   xmlns:dc="http://purl.org/dc/elements/1.1/"
   xmlns:cc="http://creativecommons.org/ns#"
   xmlns:rdf="http://www.w3.org/1999/02/22-rdf-syntax-ns#"
   xmlns:svg="http://www.w3.org/2000/svg"
   xmlns="http://www.w3.org/2000/svg"
   xmlns:sodipodi="http://sodipodi.sourceforge.net/DTD/sodipodi-0.dtd"
   xmlns:inkscape="http://www.inkscape.org/namespaces/inkscape"
   width="450"
   height="220"
   id="svg3634"
   version="1.1"
   inkscape:version="0.48.4 r9939"
   sodipodi:docname="modelo-op-sat.svg"
   inkscape:export-filename="/home/daniel/OSS/satcfe/docs/_static/svg/modelo-op-sat.png"
   inkscape:export-xdpi="90"
   inkscape:export-ydpi="90">
  <defs
     id="defs3636" />
  <sodipodi:namedview
     id="base"
     pagecolor="#ffffff"
     bordercolor="#666666"
     borderopacity="1.0"
     inkscape:pageopacity="0.0"
     inkscape:pageshadow="2"
     inkscape:zoom="2.16306"
     inkscape:cx="273.42537"
     inkscape:cy="113.25708"
     inkscape:document-units="px"
     inkscape:current-layer="layer1"
     showgrid="false"
     inkscape:window-width="1881"
     inkscape:window-height="1056"
     inkscape:window-x="39"
     inkscape:window-y="24"
     inkscape:window-maximized="1" />
  <metadata
     id="metadata3639">
    <rdf:RDF>
      <cc:Work
         rdf:about="">
        <dc:format>image/svg+xml</dc:format>
        <dc:type
           rdf:resource="http://purl.org/dc/dcmitype/StillImage" />
        <dc:title></dc:title>
      </cc:Work>
    </rdf:RDF>
  </metadata>
  <g
     inkscape:label="Camada 1"
     inkscape:groupmode="layer"
     id="layer1"
     transform="translate(0,-832.36218)">
    <text
       xml:space="preserve"
       style="font-size:22px;font-style:normal;font-variant:normal;font-weight:normal;font-stretch:normal;line-height:125%;letter-spacing:0px;word-spacing:0px;fill:#000000;fill-opacity:1;stroke:none;font-family:Ubuntu;-inkscape-font-specification:Ubuntu"
       x="60.43956"
       y="143.0293"
       id="text3039"
       sodipodi:linespacing="125%"
       transform="translate(0,813.36218)"><tspan
         sodipodi:role="line"
         id="tspan3041"
         x="60.43956"
         y="143.0293" /></text>
    <g
       id="g3082"
       transform="translate(-19.550135,0.56601966)">
      <g
         transform="matrix(0,1,1,0,-554.46658,606.07945)"
         id="g3100">
        <rect
           y="-283.79526"
           x="863.68719"
           height="3"
           width="34.361431"
           id="rect3495"
           style="fill:#808080;stroke:none"
           transform="matrix(0,1,-1,0,0,0)" />
        <g
           id="g3096"
           transform="translate(0,2.8610229e-6)">
          <rect
             style="fill:#808080;stroke:none"
             id="rect3497"
             width="10.307419"
             height="3"
             x="280.79526"
             y="885.4624" />
          <rect
             transform="matrix(0,1,-1,0,0,0)"
             y="-291.10266"
             x="885.4624"
             height="3"
             width="12.586221"
             id="rect3499"
             style="fill:#808080;stroke:none" />
        </g>
      </g>
      <text
         sodipodi:linespacing="125%"
         id="text3519"
         y="883.73236"
         x="315.05081"
         style="font-size:22px;font-style:normal;font-variant:normal;font-weight:normal;font-stretch:normal;line-height:125%;letter-spacing:0px;word-spacing:0px;fill:#808080;fill-opacity:1;stroke:none;font-family:Ubuntu;-inkscape-font-specification:Ubuntu"
         xml:space="preserve"><tspan
           style="font-size:12px;fill:#808080"
           y="883.73236"
           x="315.05081"
           id="tspan3521"
           sodipodi:role="line">USB</tspan></text>
      <text
         xml:space="preserve"
         style="font-size:22px;font-style:normal;font-variant:normal;font-weight:normal;font-stretch:normal;line-height:125%;letter-spacing:0px;word-spacing:0px;fill:#808080;fill-opacity:1;stroke:none;font-family:Ubuntu;-inkscape-font-specification:Ubuntu"
         x="221.42516"
         y="883.91235"
         id="text3525"
         sodipodi:linespacing="125%"><tspan
           sodipodi:role="line"
           id="tspan3527"
           x="221.42516"
           y="883.91235"
           style="font-size:12px;fill:#808080">ETH</tspan></text>
      <g
         transform="translate(16,0)"
         id="g3070">
        <rect
           transform="scale(-1,1)"
           style="fill:#808080;stroke:none"
           id="rect3531"
           width="26.584135"
           height="3"
           x="-238.75581"
           y="886.87469" />
        <rect
           transform="scale(-1,1)"
           y="886.87469"
           x="-210.40228"
           height="3"
           width="4.2306128"
           id="rect3533"
           style="fill:#808080;stroke:none" />
        <rect
           transform="scale(-1,1)"
           style="fill:#808080;stroke:none"
           id="rect3535"
           width="4.2306128"
           height="3"
           x="-204.40228"
           y="886.87469" />
        <rect
           transform="scale(-1,1)"
           y="886.87469"
           x="-198.40228"
           height="3"
           width="4.2306128"
           id="rect3537"
           style="fill:#808080;stroke:none" />
      </g>
      <g
         id="g3539"
         transform="translate(36.875792,373.85042)">
        <path
           id="path3541"
           d="m 133.40625,486.8125 c -4.98838,5e-5 -9.22052,1.7518 -12.75,5.28125 -3.52951,3.52954 -5.31251,7.79293 -5.3125,12.78125 0,0.35298 0.0154,0.87244 0.0625,1.53125 -2.72949,1.27065 -4.92313,3.19298 -6.59375,5.78125 -1.67063,2.56479 -2.5,5.39406 -2.5,8.5 0,4.35306 1.54257,8.08155 4.625,11.1875 3.10595,3.08243 6.83444,4.625 11.1875,4.625 l 38.40625,0 c 3.74121,0 6.92708,-1.30214 9.5625,-3.9375 2.65882,-2.65889 3.99994,-5.88372 4,-9.625 -6e-5,-3.17653 -0.99229,-5.99036 -2.96875,-8.4375 -1.97658,-2.47063 -4.49594,-4.04407 -7.53125,-4.75 0.96467,-1.48236 1.43744,-3.11022 1.4375,-4.875 -6e-5,-2.49415 -0.86031,-4.61022 -2.625,-6.375 -1.7648,-1.76471 -3.91212,-2.65621 -6.40625,-2.65625 -2.25893,4e-5 -4.19669,0.72868 -5.84375,2.1875 -1.38831,-3.34122 -3.62092,-6.05431 -6.65625,-8.125 -3.01188,-2.07059 -6.37604,-3.0937 -10.09375,-3.09375 z m -13.53125,30.75 c 0.2,10e-6 0.364,0.0515 0.5,0.1875 0.144,0.12801 0.21875,0.30726 0.21875,0.53125 0,0.22401 -0.0747,0.39526 -0.21875,0.53125 -0.136,0.12801 -0.3,0.21876 -0.5,0.21875 -0.2,10e-6 -0.38725,-0.0907 -0.53125,-0.21875 -0.136,-0.13599 -0.1875,-0.30724 -0.1875,-0.53125 0,-0.22399 0.0515,-0.40324 0.1875,-0.53125 0.144,-0.13599 0.33125,-0.18749 0.53125,-0.1875 z m 10.4375,0.65625 0,1.9375 2.34375,0 0,0.9375 -2.34375,0 0,2.875 c 0,0.312 0.0145,0.57325 0.0625,0.78125 0.048,0.2 0.12275,0.34875 0.21875,0.46875 0.096,0.112 0.19975,0.202 0.34375,0.25 0.144,0.048 0.308,0.0625 0.5,0.0625 0.336,0 0.6125,-0.0217 0.8125,-0.0937 0.208,-0.08 0.3575,-0.1555 0.4375,-0.1875 l 0.21875,0.9375 c -0.112,0.056 -0.31375,0.1075 -0.59375,0.1875 -0.28,0.088 -0.60875,0.15625 -0.96875,0.15625 -0.424,0 -0.75125,-0.0522 -1.03125,-0.15625 -0.272,-0.112 -0.5195,-0.284 -0.6875,-0.5 -0.168,-0.216 -0.27175,-0.5005 -0.34375,-0.8125 -0.064,-0.32 -0.0937,-0.67775 -0.0937,-1.09375 l 0,-5.5625 1.125,-0.1875 z m 29.625,0 0,1.9375 2.375,0 0,0.9375 -2.375,0 0,2.875 c 0,0.312 0.0457,0.57325 0.0937,0.78125 0.048,0.2 0.12275,0.34875 0.21875,0.46875 0.096,0.112 0.19975,0.202 0.34375,0.25 0.144,0.048 0.308,0.0625 0.5,0.0625 0.33599,0 0.61249,-0.0217 0.8125,-0.0937 0.20799,-0.08 0.35749,-0.1555 0.4375,-0.1875 l 0.21875,0.9375 c -0.11201,0.056 -0.31376,0.1075 -0.59375,0.1875 -0.28001,0.088 -0.60876,0.15625 -0.96875,0.15625 -0.424,0 -0.7825,-0.0522 -1.0625,-0.15625 -0.272,-0.112 -0.48825,-0.284 -0.65625,-0.5 -0.168,-0.216 -0.27175,-0.5005 -0.34375,-0.8125 -0.064,-0.32 -0.0937,-0.67775 -0.0937,-1.09375 l 0,-5.5625 1.09375,-0.1875 z M 124.84375,520 c 0.49599,10e-6 0.92199,0.0747 1.25,0.21875 0.32799,0.13601 0.58924,0.33776 0.78125,0.59375 0.19999,0.24801 0.32624,0.55426 0.40625,0.90625 0.08,0.35201 0.12499,0.73226 0.125,1.15625 l 0,3.5 -1.125,0 0,-3.25 c -1e-5,-0.38399 -0.007,-0.72799 -0.0625,-1 -0.048,-0.27199 -0.16126,-0.48824 -0.28125,-0.65625 -0.12001,-0.16799 -0.26876,-0.27174 -0.46875,-0.34375 -0.20001,-0.08 -0.45401,-0.12499 -0.75,-0.125 -0.12001,10e-6 -0.24701,-0.008 -0.375,0 -0.12801,0.008 -0.25501,0.0153 -0.375,0.0312 -0.11201,0.008 -0.21651,0.0465 -0.3125,0.0625 -0.088,0.016 -0.14751,0.0232 -0.1875,0.0312 l 0,5.25 -1.09375,0 0,-6.0625 c 0.25599,-0.064 0.57599,-0.11549 1,-0.1875 0.42399,-0.072 0.91674,-0.12499 1.46875,-0.125 z m 11.625,0 c 0.83999,10e-6 1.48949,0.25326 1.9375,0.78125 0.44799,0.52001 0.65624,1.30301 0.65625,2.375 -1e-5,0.048 -1e-5,0.13876 0,0.21875 -1e-5,0.072 0.008,0.12351 0,0.1875 l -4.28125,0 c 0.048,0.648 0.2345,1.13275 0.5625,1.46875 0.328,0.336 0.83525,0.5 1.53125,0.5 0.39199,0 0.73599,-0.0298 1,-0.0937 0.27199,-0.072 0.45774,-0.1235 0.59375,-0.1875 l 0.15625,0.9375 c -0.13601,0.072 -0.37476,0.13875 -0.71875,0.21875 -0.33601,0.08 -0.72426,0.125 -1.15625,0.125 -0.544,0 -1.00625,-0.09 -1.40625,-0.25 -0.392,-0.168 -0.71275,-0.3995 -0.96875,-0.6875 -0.256,-0.288 -0.4345,-0.608 -0.5625,-1 -0.12,-0.4 -0.1875,-0.8405 -0.1875,-1.3125 0,-0.55199 0.0588,-1.02949 0.21875,-1.4375 0.16,-0.41599 0.39225,-0.75924 0.65625,-1.03125 0.264,-0.27199 0.56225,-0.48899 0.90625,-0.625 0.344,-0.13599 0.7025,-0.18749 1.0625,-0.1875 z m 6.5,0 c 0.096,10e-6 0.1925,0.0153 0.3125,0.0312 0.128,0.008 0.255,0.0385 0.375,0.0625 0.12,0.016 0.24775,0.0385 0.34375,0.0625 0.104,0.016 0.17075,0.0153 0.21875,0.0312 l -0.1875,0.96875 c -0.088,-0.032 -0.2295,-0.0538 -0.4375,-0.0937 -0.2,-0.048 -0.46125,-0.0625 -0.78125,-0.0625 -0.208,10e-6 -0.417,0.0145 -0.625,0.0625 -0.2,0.04 -0.34225,0.0778 -0.40625,0.0937 l 0,5.21875 -1.125,0 0,-5.96875 c 0.264,-0.096 0.608,-0.16999 1,-0.25 0.392,-0.088 0.8245,-0.15624 1.3125,-0.15625 z m 4.8125,0 c 0.49599,10e-6 0.92199,0.0747 1.25,0.21875 0.32799,0.13601 0.58924,0.33776 0.78125,0.59375 0.19999,0.24801 0.32624,0.55426 0.40625,0.90625 0.08,0.35201 0.12499,0.73226 0.125,1.15625 l 0,3.5 -1.125,0 0,-3.25 c -1e-5,-0.38399 -0.006,-0.72799 -0.0625,-1 -0.048,-0.27199 -0.13001,-0.48824 -0.25,-0.65625 -0.12001,-0.16799 -0.30001,-0.27174 -0.5,-0.34375 -0.20001,-0.08 -0.42276,-0.12499 -0.71875,-0.125 -0.12,10e-6 -0.247,-0.008 -0.375,0 -0.128,0.008 -0.255,0.0153 -0.375,0.0312 -0.112,0.008 -0.2165,0.0465 -0.3125,0.0625 -0.088,0.016 -0.1475,0.0232 -0.1875,0.0312 l 0,5.25 -1.125,0 0,-6.0625 c 0.256,-0.064 0.60725,-0.11549 1.03125,-0.1875 0.424,-0.072 0.8855,-0.12499 1.4375,-0.125 z m 6.90625,0 c 0.84,10e-6 1.4895,0.25326 1.9375,0.78125 0.448,0.52001 0.6875,1.30301 0.6875,2.375 l 0,0.21875 c 0,0.072 -0.0232,0.12351 -0.0312,0.1875 l -4.28125,0 c 0.048,0.648 0.26575,1.13275 0.59375,1.46875 0.328,0.336 0.83525,0.5 1.53125,0.5 0.392,0 0.70475,-0.0298 0.96875,-0.0937 0.272,-0.072 0.489,-0.1235 0.625,-0.1875 l 0.15625,0.9375 c -0.136,0.072 -0.37475,0.13875 -0.71875,0.21875 -0.336,0.08 -0.72425,0.125 -1.15625,0.125 -0.544,0 -1.00625,-0.09 -1.40625,-0.25 -0.392,-0.168 -0.744,-0.3995 -1,-0.6875 -0.256,-0.288 -0.4345,-0.608 -0.5625,-1 -0.12,-0.4 -0.1875,-0.8405 -0.1875,-1.3125 0,-0.55199 0.09,-1.02949 0.25,-1.4375 0.16,-0.41599 0.361,-0.75924 0.625,-1.03125 0.264,-0.27199 0.56225,-0.48899 0.90625,-0.625 0.344,-0.13599 0.7025,-0.18749 1.0625,-0.1875 z m -35.375,0.15625 1.125,0 0,6.21875 -1.125,0 0,-6.21875 z m 17.125,0.78125 c -0.256,10e-6 -0.4875,0.0522 -0.6875,0.15625 -0.192,0.096 -0.33275,0.21501 -0.46875,0.375 -0.136,0.16001 -0.26375,0.35451 -0.34375,0.5625 -0.072,0.20801 -0.101,0.40901 -0.125,0.625 l 3.09375,0 c 0.008,-0.50399 -0.11101,-0.89874 -0.375,-1.21875 -0.25601,-0.32799 -0.63776,-0.49999 -1.09375,-0.5 z m 18.25,0 c -0.256,10e-6 -0.4875,0.0522 -0.6875,0.15625 -0.192,0.096 -0.364,0.21501 -0.5,0.375 -0.136,0.16001 -0.2325,0.35451 -0.3125,0.5625 -0.072,0.20801 -0.13225,0.40901 -0.15625,0.625 l 3.09375,0 c 0.008,-0.50399 -0.111,-0.89874 -0.375,-1.21875 -0.256,-0.32799 -0.6065,-0.49999 -1.0625,-0.5 z"
           style="font-size:63.24861145px;font-style:normal;font-variant:normal;font-weight:normal;font-stretch:normal;line-height:125%;letter-spacing:0px;word-spacing:0px;fill:#4d4d4d;fill-opacity:1;stroke:none;font-family:Ubuntu;-inkscape-font-specification:Ubuntu"
           inkscape:connector-curvature="0" />
      </g>
      <text
         sodipodi:linespacing="125%"
         id="text3547"
         y="1022.9424"
         x="315.23547"
         style="font-size:22px;font-style:normal;font-variant:normal;font-weight:normal;font-stretch:normal;line-height:125%;letter-spacing:0px;word-spacing:0px;fill:#808080;fill-opacity:1;stroke:none;font-family:Ubuntu;-inkscape-font-specification:Ubuntu"
         xml:space="preserve"><tspan
           id="tspan3152"
           style="font-size:12px;fill:#808080"
           y="1022.9424"
           x="315.23547"
           sodipodi:role="line">Extrato</tspan></text>
      <g
         transform="translate(103.61577,23.559279)"
         id="g3113">
        <g
           id="g3505"
           transform="translate(31.499557,595.78873)"
           style="fill:#4d4d4d">
          <g
             transform="translate(6.6320921,-13.264184)"
             id="g3507"
             style="font-size:63.36013412px;font-style:normal;font-variant:normal;font-weight:normal;font-stretch:normal;line-height:125%;letter-spacing:0px;word-spacing:0px;fill:#4d4d4d;fill-opacity:1;stroke:none;font-family:Ubuntu;-inkscape-font-specification:Ubuntu">
            <path
               inkscape:connector-curvature="0"
               id="path3509"
               d="m 154.99846,259.005 -29.4172,0 c -1.55573,4e-5 -2.88752,0.55397 -3.99537,1.66179 -1.10787,1.1079 -1.66179,2.43969 -1.66179,3.99536 l 0,29.41721 c 0,1.55573 0.55392,2.88751 1.66179,3.99536 1.10785,1.10787 2.43964,1.6618 3.99537,1.66179 l 29.4172,0 c 1.55568,10e-6 2.88746,-0.55392 3.99537,-1.66179 1.10781,-1.10785 1.66174,-2.43963 1.66179,-3.99536 l 0,-29.41721 c -5e-5,-1.55567 -0.55398,-2.88746 -1.66179,-3.99536 -1.10791,-1.10782 -2.43969,-1.66175 -3.99537,-1.66179 m 10.18288,5.65715 0,29.41721 c -5e-5,2.80501 -1.00184,5.2093 -3.00536,7.21287 -1.98005,1.98001 -4.37256,2.97001 -7.17752,2.97001 l -29.4172,0 c -2.80502,0 -5.20931,-0.99 -7.21288,-2.97001 -1.98,-2.00357 -2.97,-4.40786 -2.97,-7.21287 l 0,-29.41721 c 0,-2.80496 0.99,-5.19746 2.97,-7.17751 2.00357,-2.00353 4.40786,-3.00532 7.21288,-3.00536 l 29.4172,0 c 2.80496,4e-5 5.19747,1.00183 7.17752,3.00536 2.00352,1.98005 3.00531,4.37255 3.00536,7.17751"
               style="fill:#4d4d4d" />
          </g>
          <g
             transform="matrix(0.85838101,0,0,0.85838101,59.778499,-107.10833)"
             id="g3511"
             style="font-size:22px;font-style:normal;font-variant:normal;font-weight:normal;font-stretch:normal;line-height:125%;letter-spacing:0px;word-spacing:0px;fill:#4d4d4d;fill-opacity:1;stroke:none;font-family:Ubuntu;-inkscape-font-specification:Ubuntu">
            <path
               inkscape:connector-curvature="0"
               id="path3513"
               style="font-weight:500;letter-spacing:-1px;fill:#4d4d4d;-inkscape-font-specification:Ubuntu Medium"
               d="m 85.107098,438.81533 c 0.997327,0 1.723326,-0.16866 2.178,-0.506 0.454659,-0.33733 0.681992,-0.814 0.682,-1.43 -8e-6,-0.36666 -0.08067,-0.68199 -0.242,-0.946 -0.146674,-0.26399 -0.366674,-0.49866 -0.66,-0.704 -0.278674,-0.21999 -0.62334,-0.41799 -1.034,-0.594 -0.410672,-0.19066 -0.880005,-0.37399 -1.408,-0.55 -0.528004,-0.19066 -1.041337,-0.39599 -1.54,-0.616 -0.484003,-0.23466 -0.916669,-0.52066 -1.298,-0.858 -0.366668,-0.33732 -0.667335,-0.74066 -0.902,-1.21 -0.220001,-0.46932 -0.330001,-1.03399 -0.33,-1.694 -1e-6,-1.37865 0.476665,-2.45665 1.43,-3.234 0.95333,-0.79198 2.251329,-1.18798 3.894,-1.188 0.953326,2e-5 1.796659,0.11002 2.53,0.33 0.747991,0.20535 1.334657,0.43268 1.76,0.682 l -0.858,2.244 c -0.498676,-0.27865 -1.048675,-0.49132 -1.65,-0.638 -0.586674,-0.14665 -1.19534,-0.21999 -1.826,-0.22 -0.748005,10e-6 -1.334671,0.15401 -1.76,0.462 -0.41067,0.30801 -0.616004,0.74068 -0.616,1.298 -4e-6,0.33735 0.066,0.63068 0.198,0.88 0.146663,0.23468 0.344663,0.44734 0.594,0.638 0.263995,0.19068 0.564662,0.36668 0.902,0.528 0.351994,0.16134 0.733327,0.31534 1.144,0.462 0.71866,0.26401 1.356659,0.53534 1.914,0.814 0.571991,0.26401 1.048657,0.58668 1.43,0.968 0.39599,0.36667 0.696656,0.80667 0.902,1.32 0.205322,0.49867 0.307989,1.10734 0.308,1.826 -1.1e-5,1.37867 -0.491344,2.44934 -1.474,3.212 -0.968009,0.748 -2.390674,1.122 -4.268,1.122 -0.630671,0 -1.210004,-0.044 -1.738,-0.132 -0.513336,-0.0733 -0.975336,-0.16867 -1.386,-0.286 -0.396002,-0.11733 -0.740668,-0.23467 -1.034,-0.352 -0.293334,-0.132 -0.528001,-0.24933 -0.704,-0.352 l 0.814,-2.266 c 0.395998,0.22 0.931331,0.44 1.606,0.66 0.674663,0.22 1.488662,0.33 2.442,0.33" />
            <path
               inkscape:connector-curvature="0"
               id="path3515"
               style="font-weight:500;letter-spacing:-1px;fill:#4d4d4d;-inkscape-font-specification:Ubuntu Medium"
               d="m 105.84447,440.11333 c -0.44001,0 -0.84334,-0.0587 -1.21,-0.176 -0.36668,-0.132 -0.67468,-0.33 -0.924,-0.594 -0.32268,0.23467 -0.70401,0.41067 -1.144,0.528 -0.42534,0.11734 -0.87267,0.176 -1.342,0.176 -0.71867,0 -1.378673,-0.11 -1.979997,-0.33 -0.586675,-0.22 -1.100007,-0.55 -1.54,-0.99 -0.42534,-0.44 -0.75534,-0.98266 -0.99,-1.628 -0.234672,-0.65999 -0.352006,-1.42266 -0.352,-2.288 -6e-6,-0.71866 0.117328,-1.39332 0.352,-2.024 0.23466,-0.64532 0.571993,-1.20266 1.012,-1.672 0.454659,-0.46932 1.004659,-0.83599 1.65,-1.1 0.659987,-0.27865 1.407987,-0.41799 2.243997,-0.418 0.80666,10e-6 1.53266,0.066 2.178,0.198 0.64532,0.13201 1.15866,0.27135 1.54,0.418 l 0,6.82 c -1e-5,0.41067 0.0733,0.69667 0.22,0.858 0.16132,0.14667 0.37399,0.22 0.638,0.22 0.63065,0 1.12199,-0.38866 1.474,-1.166 0.36665,-0.79199 0.54999,-1.92133 0.55,-3.388 -1e-5,-0.90932 -0.16135,-1.75266 -0.484,-2.53 -0.30801,-0.79199 -0.76268,-1.47399 -1.364,-2.046 -0.60135,-0.57199 -1.33468,-1.01932 -2.2,-1.342 -0.85068,-0.33732 -1.81134,-0.50598 -2.882,-0.506 -1.05601,2e-5 -2.031339,0.17601 -2.925997,0.528 -0.880007,0.35201 -1.642673,0.85801 -2.288,1.518 -0.630671,0.66001 -1.129338,1.46668 -1.496,2.42 -0.352004,0.95334 -0.528003,2.03134 -0.528,3.234 -3e-6,1.26134 0.18333,2.36867 0.55,3.322 0.366662,0.93867 0.879995,1.72334 1.54,2.354 0.674661,0.63067 1.473993,1.10733 2.398,1.43 0.938658,0.32267 1.979987,0.484 3.123997,0.484 0.79199,0 1.48866,-0.0513 2.09,-0.154 0.61599,-0.088 1.07799,-0.16867 1.386,-0.242 l 0.264,1.848 c -0.16134,0.044 -0.37401,0.0953 -0.638,0.154 -0.24934,0.0587 -0.54268,0.11 -0.88,0.154 -0.32268,0.0587 -0.67468,0.10266 -1.056,0.132 -0.38134,0.044 -0.77001,0.066 -1.166,0.066 -1.36401,0 -2.647339,-0.18334 -3.849997,-0.55 -1.188006,-0.36667 -2.229338,-0.93867 -3.124,-1.716 -0.880003,-0.77733 -1.584002,-1.76733 -2.112,-2.97 -0.513335,-1.20266 -0.770001,-2.63999 -0.77,-4.312 -1e-6,-1.59866 0.263999,-2.99932 0.792,-4.202 0.527998,-1.21732 1.231997,-2.22199 2.112,-3.014 0.879995,-0.80665 1.884661,-1.40798 3.014,-1.804 1.143992,-0.41065 2.331987,-0.61598 3.563997,-0.616 1.27599,2e-5 2.47132,0.19068 3.586,0.572 1.11465,0.38135 2.08265,0.93868 2.904,1.672 0.82132,0.71868 1.46665,1.60601 1.936,2.662 0.48398,1.05601 0.72598,2.25868 0.726,3.608 -2e-5,1.04134 -0.11735,1.95801 -0.352,2.75 -0.22002,0.792 -0.53535,1.45934 -0.946,2.002 -0.41068,0.54267 -0.89468,0.95334 -1.452,1.232 -0.55735,0.27867 -1.17335,0.418 -1.848,0.418 m -2.838,-2.398 c -0.0293,-0.16133 -0.0587,-0.34466 -0.088,-0.55 -0.0147,-0.20533 -0.022,-0.40333 -0.022,-0.594 l 0,-4.84 c -0.29334,-0.0733 -0.67468,-0.10999 -1.144,-0.11 -0.49867,10e-6 -0.93134,0.0807 -1.298,0.242 -0.35201,0.16134 -0.645339,0.38868 -0.879997,0.682 -0.234675,0.27868 -0.410675,0.61601 -0.528,1.012 -0.102675,0.38134 -0.154008,0.79934 -0.154,1.254 -8e-6,0.92401 0.197992,1.68667 0.594,2.288 0.395991,0.60134 1.011987,0.902 1.847997,0.902 0.26399,0 0.53533,-0.0147 0.814,-0.044 0.29332,-0.044 0.57932,-0.12466 0.858,-0.242" />
            <path
               inkscape:connector-curvature="0"
               id="path3517"
               style="font-weight:500;letter-spacing:-1px;fill:#4d4d4d;-inkscape-font-specification:Ubuntu Medium"
               d="m 122.39257,425.63733 0,2.398 -4.686,0 0,12.848 -2.794,0 0,-12.848 -4.686,0 0,-2.398 12.166,0" />
          </g>
        </g>
        <text
           xml:space="preserve"
           style="font-size:22px;font-style:normal;font-variant:normal;font-weight:normal;font-stretch:normal;text-align:center;line-height:125%;letter-spacing:0px;word-spacing:0px;text-anchor:middle;fill:#808080;fill-opacity:1;stroke:none;font-family:Ubuntu;-inkscape-font-specification:Ubuntu"
           x="178.21057"
           y="902.23596"
           id="text3555"
           sodipodi:linespacing="125%"><tspan
             sodipodi:role="line"
             id="tspan3557"
             x="178.21057"
             y="902.23596"
             style="font-size:12px;text-align:center;text-anchor:middle;fill:#808080">Equipamento</tspan><tspan
             sodipodi:role="line"
             x="178.21057"
             y="917.23596"
             style="font-size:12px;text-align:center;text-anchor:middle;fill:#808080"
             id="tspan3559">SAT</tspan></text>
      </g>
      <g
         transform="matrix(0.7678618,0,0,0.7678618,177.40172,654.07147)"
         id="g3565"
         style="font-size:105.94283295px;font-style:normal;font-variant:normal;font-weight:normal;font-stretch:normal;line-height:125%;letter-spacing:0px;word-spacing:0px;fill:#4d4d4d;fill-opacity:1;stroke:none;font-family:Ubuntu;-inkscape-font-specification:Ubuntu">
        <path
           inkscape:connector-curvature="0"
           id="path3567"
           d="m 325.76025,327.47456 0,-49.18775 c -1.1e-4,-0.51229 -0.19718,-0.94583 -0.5912,-1.30064 -0.35483,-0.39405 -0.78837,-0.59111 -1.30064,-0.59119 l -94.59182,0 c -0.51238,8e-5 -0.96563,0.19714 -1.35975,0.59119 -0.35473,0.35481 -0.53209,0.78835 -0.53208,1.30064 l 0,49.18775 c -1e-5,0.5124 0.17735,0.96565 0.53208,1.35975 0.39412,0.35475 0.84737,0.53211 1.35975,0.53208 l 94.59182,0 c 0.51227,3e-5 0.94581,-0.17733 1.30064,-0.53208 0.39402,-0.3941 0.59109,-0.84735 0.5912,-1.35975 m 7.56734,-49.18775 0,64.32244 c -1.1e-4,2.60129 -0.92632,4.82813 -2.77863,6.68054 -1.85254,1.85243 -4.07938,2.77865 -6.68055,2.77864 l -32.16122,0 c -7e-5,1.45829 0.31524,2.99541 0.94592,4.61135 0.63054,1.57653 1.26115,2.95599 1.89184,4.13839 0.63053,1.22181 0.94584,2.0889 0.94592,2.60128 -8e-5,1.02474 -0.37451,1.91153 -1.12328,2.66039 -0.74893,0.74884 -1.63573,1.12327 -2.6604,1.12328 l -30.26938,0 c -1.02478,-1e-5 -1.91158,-0.37444 -2.66039,-1.12328 -0.74889,-0.74886 -1.12332,-1.63565 -1.12328,-2.66039 -4e-5,-0.55179 0.31527,-1.41888 0.94592,-2.60128 0.63057,-1.1824 1.26118,-2.56186 1.89183,-4.13839 0.63057,-1.57653 0.94588,-3.11364 0.94592,-4.61135 l -32.16122,0 c -2.60128,1e-5 -4.82812,-0.92621 -6.68054,-2.77864 -1.85243,-1.85241 -2.77864,-4.07925 -2.77864,-6.68054 l 0,-64.32244 c 0,-2.60119 0.92621,-4.82804 2.77864,-6.68055 1.85242,-1.85233 4.07926,-2.77854 6.68054,-2.77863 l 94.59182,0 c 2.60117,9e-5 4.82801,0.9263 6.68055,2.77863 1.85231,1.85251 2.77852,4.07936 2.77863,6.68055"
           style="fill:#4d4d4d" />
      </g>
      <rect
         transform="matrix(0,-1,-1,0,0,0)"
         style="fill:#808080;stroke:none"
         id="rect3571"
         width="63.197975"
         height="3"
         x="-970.14185"
         y="-336.24301" />
      <rect
         y="906.94385"
         x="-343.24216"
         height="3"
         width="9.9991522"
         id="rect3573"
         style="fill:#808080;stroke:none"
         transform="scale(-1,1)" />
      <g
         id="text3032"
         style="font-size:22px;font-style:normal;font-variant:normal;font-weight:normal;font-stretch:normal;line-height:125%;letter-spacing:0px;word-spacing:0px;fill:#4d4d4d;fill-opacity:1;stroke:none;font-family:Ubuntu;-inkscape-font-specification:Ubuntu"
         transform="matrix(2.0639453,0,0,2.0639453,0.559286,605.80669)">
        <path
           style="fill:#4d4d4d;fill-opacity:1"
           inkscape:connector-curvature="0"
           id="path3037"
           d="m 36.819168,139.22576 c 0.613829,-0.61383 0.920748,-1.35453 0.920759,-2.22209 -1.1e-5,-0.86755 -0.30693,-1.60825 -0.920759,-2.2221 -0.613848,-0.61383 -1.354547,-0.92075 -2.222098,-0.92076 -0.867566,1e-5 -1.608265,0.30693 -2.222098,0.92076 -0.613844,0.61385 -0.920764,1.35455 -0.920759,2.2221 -5e-6,0.86756 0.306915,1.60826 0.920759,2.22209 0.613833,0.61385 1.354532,0.92077 2.222098,0.92076 0.867551,1e-5 1.60825,-0.30691 2.222098,-0.92076 m 10.349331,4.06362 c -2.1e-5,-0.42559 -0.155527,-0.7939 -0.466518,-1.10491 -0.311032,-0.31101 -0.679335,-0.46651 -1.104911,-0.46652 -0.425614,1e-5 -0.793917,0.15551 -1.104911,0.46652 -0.311029,0.31101 -0.466535,0.67932 -0.466517,1.10491 -1.8e-5,0.43378 0.151396,0.80618 0.454241,1.11719 0.310994,0.30283 0.683389,0.45424 1.117187,0.45424 0.433761,0 0.802064,-0.15141 1.104911,-0.45424 0.310991,-0.31101 0.466497,-0.68341 0.466518,-1.11719 m 0,-12.57143 c -2.1e-5,-0.42558 -0.155527,-0.79388 -0.466518,-1.10491 -0.311032,-0.31099 -0.679335,-0.4665 -1.104911,-0.46652 -0.425614,2e-5 -0.793917,0.15553 -1.104911,0.46652 -0.311029,0.31103 -0.466535,0.67933 -0.466517,1.10491 -1.8e-5,0.4338 0.151396,0.80619 0.454241,1.11719 0.310994,0.30284 0.683389,0.45425 1.117187,0.45424 0.433761,1e-5 0.802064,-0.1514 1.104911,-0.45424 0.310991,-0.311 0.466497,-0.68339 0.466518,-1.11719 m -4.714286,5.16853 0,2.2712 c -1.6e-5,0.0819 -0.02866,0.1637 -0.08594,0.24554 -0.05731,0.0737 -0.122784,0.11459 -0.196429,0.12277 l -1.902902,0.29464 c -0.09004,0.28646 -0.220995,0.59748 -0.392857,0.93304 0.27826,0.39286 0.646564,0.86347 1.104911,1.41183 0.05728,0.0819 0.08592,0.16369 0.08594,0.24553 -1.4e-5,0.0982 -0.02866,0.17597 -0.08594,0.23326 -0.188258,0.24554 -0.527916,0.61384 -1.018973,1.10491 -0.4829,0.48289 -0.802096,0.72433 -0.95759,0.72433 -0.09004,0 -0.175979,-0.0286 -0.257812,-0.0859 l -1.411831,-1.10492 c -0.302837,0.15551 -0.617941,0.28237 -0.945312,0.38058 -0.09004,0.88393 -0.184161,1.51823 -0.282366,1.90291 -0.0573,0.19643 -0.180069,0.29464 -0.368304,0.29464 l -2.283482,0 c -0.09004,0 -0.171881,-0.0286 -0.245536,-0.0859 -0.07367,-0.0655 -0.114589,-0.13913 -0.122767,-0.22098 l -0.282367,-1.87835 c -0.278279,-0.0818 -0.585198,-0.2087 -0.920758,-0.38058 l -1.448661,1.09264 c -0.0573,0.0573 -0.139141,0.0859 -0.245536,0.0859 -0.09003,0 -0.17597,-0.0327 -0.257812,-0.0982 -1.178574,-1.08854 -1.767859,-1.7433 -1.767858,-1.96429 -1e-6,-0.0737 0.02864,-0.15141 0.08594,-0.23326 0.08184,-0.11458 0.249626,-0.33147 0.503348,-0.65067 0.253718,-0.31919 0.446054,-0.56882 0.577009,-0.74888 -0.188246,-0.36011 -0.331475,-0.69568 -0.429687,-1.0067 l -1.866072,-0.29464 c -0.08184,-0.008 -0.151414,-0.045 -0.208705,-0.11049 -0.05729,-0.0736 -0.08594,-0.1555 -0.08594,-0.24554 l 0,-2.2712 c 0,-0.0818 0.02865,-0.15959 0.08594,-0.23326 0.05729,-0.0818 0.122767,-0.12685 0.196428,-0.13504 l 1.902902,-0.29465 c 0.09003,-0.28645 0.22098,-0.59746 0.392857,-0.93303 -0.278276,-0.39285 -0.646579,-0.86346 -1.10491,-1.41183 -0.05729,-0.09 -0.08594,-0.17187 -0.08594,-0.24554 -1e-6,-0.0982 0.02864,-0.18005 0.08594,-0.24554 0.180057,-0.24552 0.515623,-0.60973 1.006696,-1.09263 0.491068,-0.48287 0.814357,-0.72432 0.969866,-0.72433 0.09003,1e-5 0.175964,0.0287 0.257813,0.0859 l 1.41183,1.10491 c 0.278268,-0.14731 0.593372,-0.27826 0.945312,-0.39286 0.09002,-0.88391 0.184146,-1.51412 0.282367,-1.89062 0.05729,-0.19642 0.180053,-0.29463 0.368303,-0.29465 l 2.283482,0 c 0.09002,2e-5 0.171866,0.0328 0.245536,0.0982 0.07365,0.0573 0.114574,0.12687 0.122768,0.2087 l 0.282366,1.87835 c 0.278264,0.0819 0.585183,0.20872 0.920759,0.38058 l 1.448661,-1.09263 c 0.06546,-0.0573 0.147309,-0.0859 0.245535,-0.0859 0.09002,1e-5 0.175955,0.0327 0.257813,0.0982 1.178557,1.08856 1.767843,1.74332 1.767857,1.96429 -1.4e-5,0.0737 -0.02866,0.15143 -0.08594,0.23326 -0.09823,0.13096 -0.270103,0.35195 -0.515625,0.66295 -0.245549,0.31102 -0.4297,0.55655 -0.552455,0.7366 0.188231,0.39287 0.327367,0.72844 0.417411,1.0067 l 1.866071,0.28237 c 0.08183,0.0164 0.151398,0.0614 0.208706,0.13504 0.05727,0.0655 0.08592,0.14324 0.08594,0.23326 m 7.857143,6.54353 0,1.71875 c -2.4e-5,0.13095 -0.60977,0.25781 -1.829241,0.38058 -0.09824,0.22098 -0.221004,0.43378 -0.368304,0.63839 0.417389,0.92485 0.626094,1.48958 0.626116,1.6942 -2.2e-5,0.0327 -0.01639,0.0614 -0.04911,0.0859 -0.998533,0.5811 -1.505973,0.87165 -1.522321,0.87165 -0.0655,0 -0.253741,-0.19233 -0.564732,-0.577 -0.311032,-0.38468 -0.523829,-0.66295 -0.638393,-0.83483 -0.16371,0.0164 -0.286478,0.0246 -0.368304,0.0246 -0.08186,0 -0.204632,-0.008 -0.368303,-0.0246 -0.114602,0.17188 -0.3274,0.45015 -0.638393,0.83483 -0.31103,0.38467 -0.499274,0.577 -0.564732,0.577 -0.01639,0 -0.523827,-0.29055 -1.522322,-0.87165 -0.03275,-0.0246 -0.04912,-0.0532 -0.04911,-0.0859 -1.6e-5,-0.20462 0.208689,-0.76935 0.626116,-1.6942 -0.147338,-0.20461 -0.270105,-0.41741 -0.368303,-0.63839 -1.219509,-0.12277 -1.829256,-0.24963 -1.829242,-0.38058 l 0,-1.71875 c -1.4e-5,-0.13095 0.609733,-0.25781 1.829242,-0.38058 0.106382,-0.23735 0.22915,-0.45015 0.368303,-0.6384 -0.417427,-0.92484 -0.626132,-1.48958 -0.626116,-1.69419 -1.6e-5,-0.0327 0.01635,-0.0614 0.04911,-0.0859 0.03272,-0.0164 0.175951,-0.0982 0.429688,-0.24554 0.253703,-0.14731 0.495147,-0.28645 0.72433,-0.41741 0.22915,-0.13094 0.351917,-0.19642 0.368304,-0.19643 0.06546,1e-5 0.253702,0.19235 0.564732,0.57701 0.310993,0.3765 0.523791,0.65068 0.638393,0.82255 0.163671,-0.0164 0.286439,-0.0245 0.368303,-0.0246 0.08183,1e-5 0.204594,0.008 0.368304,0.0246 0.417391,-0.5811 0.793879,-1.03943 1.129464,-1.375 l 0.07366,-0.0246 c 0.03272,1e-5 0.540157,0.28647 1.522321,0.85938 0.03272,0.0246 0.04908,0.0532 0.04911,0.0859 -2.2e-5,0.20461 -0.208727,0.76935 -0.626116,1.69419 0.139116,0.18825 0.261883,0.40105 0.368304,0.6384 1.219471,0.12277 1.829217,0.24963 1.829241,0.38058 m 0,-12.57143 0,1.71875 c -2.4e-5,0.13096 -0.60977,0.25782 -1.829241,0.38058 -0.09824,0.22099 -0.221004,0.43379 -0.368304,0.63839 0.417389,0.92486 0.626094,1.48959 0.626116,1.6942 -2.2e-5,0.0327 -0.01639,0.0614 -0.04911,0.0859 -0.998533,0.58112 -1.505973,0.87167 -1.522321,0.87166 -0.0655,1e-5 -0.253741,-0.19233 -0.564732,-0.57701 -0.311032,-0.38466 -0.523829,-0.66294 -0.638393,-0.83482 -0.16371,0.0164 -0.286478,0.0246 -0.368304,0.0245 -0.08186,10e-6 -0.204632,-0.008 -0.368303,-0.0245 -0.114602,0.17188 -0.3274,0.45016 -0.638393,0.83482 -0.31103,0.38468 -0.499274,0.57702 -0.564732,0.57701 -0.01639,1e-5 -0.523827,-0.29054 -1.522322,-0.87166 -0.03275,-0.0245 -0.04912,-0.0532 -0.04911,-0.0859 -1.6e-5,-0.20461 0.208689,-0.76934 0.626116,-1.6942 -0.147338,-0.2046 -0.270105,-0.4174 -0.368303,-0.63839 -1.219509,-0.12276 -1.829256,-0.24962 -1.829242,-0.38058 l 0,-1.71875 c -1.4e-5,-0.13094 0.609733,-0.2578 1.829242,-0.38058 0.106382,-0.23734 0.22915,-0.45014 0.368303,-0.6384 -0.417427,-0.92483 -0.626132,-1.48956 -0.626116,-1.69419 -1.6e-5,-0.0327 0.01635,-0.0614 0.04911,-0.0859 0.03272,-0.0164 0.175951,-0.0982 0.429688,-0.24554 0.253703,-0.1473 0.495147,-0.28644 0.72433,-0.41741 0.22915,-0.13093 0.351917,-0.19641 0.368304,-0.19642 0.06546,1e-5 0.253702,0.19235 0.564732,0.577 0.310993,0.37651 0.523791,0.65069 0.638393,0.82255 0.163671,-0.0164 0.286439,-0.0245 0.368303,-0.0245 0.08183,1e-5 0.204594,0.008 0.368304,0.0245 0.417391,-0.58108 0.793879,-1.03942 1.129464,-1.375 l 0.07366,-0.0245 c 0.03272,1e-5 0.540157,0.28647 1.522321,0.85937 0.03272,0.0246 0.04908,0.0532 0.04911,0.0859 -2.2e-5,0.20463 -0.208727,0.76936 -0.626116,1.69419 0.139116,0.18826 0.261883,0.40106 0.368304,0.6384 1.219471,0.12278 1.829217,0.24964 1.829241,0.38058" />
      </g>
      <g
         id="text3137"
         style="font-size:22px;font-style:normal;font-variant:normal;font-weight:normal;font-stretch:normal;line-height:125%;letter-spacing:0px;word-spacing:0px;fill:#4d4d4d;fill-opacity:1;stroke:none;font-family:FontAwesome;-inkscape-font-specification:FontAwesome"
         transform="matrix(1.9307544,0,0,1.9307544,142.53903,729.30394)">
        <path
           inkscape:connector-curvature="0"
           id="path3142"
           style="fill:#4d4d4d;fill-opacity:1"
           d="m 94.256011,143.21118 10.999999,0 0,-3.14286 -10.999999,0 0,3.14286 m 0,-7.85714 10.999999,0 0,-4.71429 -1.96428,0 c -0.3274,2e-5 -0.60567,-0.11457 -0.83483,-0.34375 -0.22918,-0.22915 -0.34376,-0.50742 -0.34375,-0.83482 l 0,-1.96428 -7.857139,0 0,7.85714 m 13.909599,1.33817 c 0.15549,-0.1555 0.23324,-0.33965 0.23326,-0.55246 -2e-5,-0.21279 -0.0778,-0.39694 -0.23326,-0.55245 -0.15553,-0.1555 -0.33968,-0.23325 -0.55246,-0.23326 -0.21281,1e-5 -0.39696,0.0778 -0.55245,0.23326 -0.15552,0.15551 -0.23328,0.33966 -0.23326,0.55245 -2e-5,0.21281 0.0777,0.39696 0.23326,0.55246 0.15549,0.15551 0.33964,0.23326 0.55245,0.23326 0.21278,0 0.39693,-0.0777 0.55246,-0.23326 m 1.80469,-0.55246 0,5.10715 c -2e-5,0.1064 -0.0409,0.20052 -0.12277,0.28236 -0.0737,0.0737 -0.16371,0.11049 -0.27009,0.11049 l -2.75,0 0,1.96429 c -2e-5,0.32738 -0.1146,0.60565 -0.34375,0.83482 -0.22918,0.22917 -0.50746,0.34375 -0.83482,0.34375 l -11.785716,0 c -0.327385,0 -0.605659,-0.11458 -0.834822,-0.34375 -0.22917,-0.22917 -0.343753,-0.50744 -0.34375,-0.83482 l 0,-1.96429 -2.75,0 c -0.106399,0 -0.200521,-0.0368 -0.282366,-0.11049 -0.07366,-0.0818 -0.110491,-0.17596 -0.110491,-0.28236 l 0,-5.10715 c 0,-0.64657 0.229167,-1.19902 0.6875,-1.65736 0.466517,-0.46651 1.023064,-0.69977 1.669643,-0.69978 l 0.785714,0 0,-6.67857 c -3e-6,-0.32737 0.11458,-0.60564 0.34375,-0.83482 0.229163,-0.22915 0.507437,-0.34374 0.834822,-0.34375 l 8.249996,0 c 0.32737,10e-6 0.68749,0.0819 1.08036,0.24553 0.39284,0.16371 0.70386,0.36014 0.93304,0.58929 l 1.86607,1.86607 c 0.22915,0.22918 0.42558,0.54019 0.58928,0.93304 0.16368,0.39287 0.24552,0.75299 0.24554,1.08035 l 0,3.14286 0.78571,0 c 0.64656,1e-5 1.19902,0.23327 1.65737,0.69978 0.4665,0.45834 0.69976,1.01079 0.69978,1.65736" />
      </g>
      <g
         transform="translate(-57.936533,-68.153626)"
         id="g3051">
        <rect
           y="955.02832"
           x="165.56398"
           height="3"
           width="15.225198"
           id="rect3026"
           style="fill:#808080;stroke:none" />
        <g
           id="g3038">
          <rect
             y="955.02832"
             x="182.55856"
             height="3"
             width="4.2306128"
             id="rect3028"
             style="fill:#808080;stroke:none" />
          <rect
             style="fill:#808080;stroke:none"
             id="rect3030"
             width="4.2306128"
             height="3"
             x="188.55856"
             y="955.02832" />
          <rect
             y="955.02832"
             x="194.55856"
             height="3"
             width="4.2306128"
             id="rect3032"
             style="fill:#808080;stroke:none" />
        </g>
        <g
           id="g3043"
           transform="translate(-35.055093,0)">
          <rect
             style="fill:#808080;stroke:none"
             id="rect3045"
             width="4.2306128"
             height="3"
             x="182.55856"
             y="955.02832" />
          <rect
             y="955.02832"
             x="188.55856"
             height="3"
             width="4.2306128"
             id="rect3047"
             style="fill:#808080;stroke:none" />
          <rect
             style="fill:#808080;stroke:none"
             id="rect3049"
             width="4.2306128"
             height="3"
             x="194.55856"
             y="955.02832" />
        </g>
      </g>
      <text
         xml:space="preserve"
         style="font-size:22px;font-style:normal;font-variant:normal;font-weight:normal;font-stretch:normal;line-height:125%;letter-spacing:0px;word-spacing:0px;fill:#808080;fill-opacity:1;stroke:none;font-family:Ubuntu;-inkscape-font-specification:Ubuntu"
         x="63.532761"
         y="925.72986"
         id="text3062"
         sodipodi:linespacing="125%"><tspan
           sodipodi:role="line"
           x="63.532761"
           y="925.72986"
           style="font-size:12px;fill:#808080"
           id="tspan3064">SEFAZ</tspan></text>
      <text
         xml:space="preserve"
         style="font-size:22px;font-style:normal;font-variant:normal;font-weight:normal;font-stretch:normal;text-align:center;line-height:125%;letter-spacing:0px;word-spacing:0px;text-anchor:middle;fill:#808080;fill-opacity:1;stroke:none;font-family:Ubuntu;-inkscape-font-specification:Ubuntu"
         x="389.85098"
         y="950.94238"
         id="text3076"
         sodipodi:linespacing="125%"><tspan
           sodipodi:role="line"
           x="389.85098"
           y="950.94238"
           style="font-size:12px;text-align:center;text-anchor:middle;fill:#808080"
           id="tspan3078">Aplicativo</tspan><tspan
           id="tspan3080"
           sodipodi:role="line"
           x="389.85098"
           y="965.94238"
           style="font-size:12px;text-align:center;text-anchor:middle;fill:#808080">Comercial</tspan></text>
    </g>
  </g>
</svg>
